<svg xmlns="http://www.w3.org/2000/svg" width="1280" height="230" viewBox="0 0 1280 230"><rect x="50" y="14" width="1180" height="202" rx="20" fill="none" stroke="#1e40af" stroke-width="3" opacity="0.75"/><rect x="360" y="100" width="24" height="30" rx="6" fill="none" stroke="#1e40af" stroke-width="3" opacity="0.75"/><rect x="628" y="100" width="24" height="30" rx="6" fill="none" stroke="#1e40af" stroke-width="3" opacity="0.75"/><rect x="896" y="100" width="24" height="30" rx="6" fill="none" stroke="#1e40af" stroke-width="3" opacity="0.75"/><rect x="494" y="44" width="60" height="16" rx="8" fill="none" stroke="#1e40af" stroke-width="3" opacity="0.55"/><rect x="494" y="170" width="60" height="16" rx="8" fill="none" stroke="#1e40af" stroke-width="3" opacity="0.55"/><rect x="762" y="44" width="60" height="16" rx="8" fill="none" stroke="#1e40af" stroke-width="3" opacity="0.55"/><rect x="762" y="170" width="60" height="16" rx="8" fill="none" stroke="#1e40af" stroke-width="3" opacity="0.55"/><circle cx="110" cy="70" r="9" fill="#fafafa"><animate attributeName="opacity" values="1;0.2;1" dur="1s" begin="0.0s" repeatCount="indefinite"/></circle><circle cx="1170" cy="70" r="9" fill="#fafafa"><animate attributeName="opacity" values="1;0.2;1" dur="1s" begin="0.25s" repeatCount="indefinite"/></circle><circle cx="110" cy="160" r="9" fill="#fafafa"><animate attributeName="opacity" values="1;0.2;1" dur="1s" begin="0.5s" repeatCount="indefinite"/></circle><circle cx="1170" cy="160" r="9" fill="#fafafa"><animate attributeName="opacity" values="1;0.2;1" dur="1s" begin="0.75s" repeatCount="indefinite"/></circle><circle cx="190" cy="70" r="6" fill="#71717a"><animate attributeName="opacity" values="1;1;0;0" keyTimes="0;0.0755;0.0955;1" dur="10.0s" repeatCount="indefinite"/></circle><circle cx="262" cy="70" r="6" fill="#71717a"><animate attributeName="opacity" values="1;1;0;0" keyTimes="0;0.1434;0.1634;1" dur="10.0s" repeatCount="indefinite"/></circle><circle cx="334" cy="70" r="6" fill="#71717a"><animate attributeName="opacity" values="1;1;0;0" keyTimes="0;0.2113;0.23129999999999998;1" dur="10.0s" repeatCount="indefinite"/></circle><circle cx="406" cy="70" r="6" fill="#71717a"><animate attributeName="opacity" values="1;1;0;0" keyTimes="0;0.2792;0.2992;1" dur="10.0s" repeatCount="indefinite"/></circle><circle cx="478" cy="70" r="6" fill="#71717a"><animate attributeName="opacity" values="1;1;0;0" keyTimes="0;0.3472;0.3672;1" dur="10.0s" repeatCount="indefinite"/></circle><circle cx="550" cy="70" r="6" fill="#71717a"><animate attributeName="opacity" values="1;1;0;0" keyTimes="0;0.4151;0.43510000000000004;1" dur="10.0s" repeatCount="indefinite"/></circle><circle cx="622" cy="70" r="6" fill="#71717a"><animate attributeName="opacity" values="1;1;0;0" keyTimes="0;0.483;0.503;1" dur="10.0s" repeatCount="indefinite"/></circle><circle cx="694" cy="70" r="6" fill="#71717a"><animate attributeName="opacity" values="1;1;0;0" keyTimes="0;0.5509;0.5709;1" dur="10.0s" repeatCount="indefinite"/></circle><circle cx="766" cy="70" r="6" fill="#71717a"><animate attributeName="opacity" values="1;1;0;0" keyTimes="0;0.6189;0.6389;1" dur="10.0s" repeatCount="indefinite"/></circle><circle cx="838" cy="70" r="6" fill="#71717a"><animate attributeName="opacity" values="1;1;0;0" keyTimes="0;0.6868;0.7068;1" dur="10.0s" repeatCount="indefinite"/></circle><circle cx="910" cy="70" r="6" fill="#71717a"><animate attributeName="opacity" values="1;1;0;0" keyTimes="0;0.7547;0.7747;1" dur="10.0s" repeatCount="indefinite"/></circle><circle cx="982" cy="70" r="6" fill="#71717a"><animate attributeName="opacity" values="1;1;0;0" keyTimes="0;0.8226;0.8426;1" dur="10.0s" repeatCount="indefinite"/></circle><circle cx="1054" cy="70" r="6" fill="#71717a"><animate attributeName="opacity" values="1;1;0;0" keyTimes="0;0.8906;0.9106;1" dur="10.0s" repeatCount="indefinite"/></circle><circle cx="1126" cy="70" r="6" fill="#71717a"><animate attributeName="opacity" values="1;1;0;0" keyTimes="0;0.9585;0.9785;1" dur="10.0s" repeatCount="indefinite"/></circle><g><animateTransform attributeName="transform" type="translate" from="-150 0" to="910 0" dur="10.0s" repeatCount="indefinite"/><g><animateTransform attributeName="transform" type="translate" values="0 0;0 -6;0 0" dur="0.9s" repeatCount="indefinite"/><path d="M -26 96 L -26 68 A 26 26 0 0 1 26 68 L 26 96 L 17 86 L 8 96 L -1 86 L -10 96 L -19 86 L -26 96 Z" fill="#f59e0b"/><circle cx="-9" cy="64" r="6" fill="#fafafa"/><circle cx="9" cy="64" r="6" fill="#fafafa"/><circle cx="-9" cy="65" r="3" fill="#052e22"/><circle cx="9" cy="65" r="3" fill="#052e22"/></g></g><g><animateTransform attributeName="transform" type="translate" from="1060 0" to="0 0" dur="10.0s" repeatCount="indefinite"/><g><animateTransform attributeName="transform" type="translate" values="0 0;0 -6;0 0" dur="1.1s" repeatCount="indefinite"/><path d="M -26 186 L -26 158 A 26 26 0 0 1 26 158 L 26 186 L 17 176 L 8 186 L -1 176 L -10 186 L -19 176 L -26 186 Z" fill="#38bdf8"/><circle cx="-9" cy="154" r="6" fill="#fafafa"/><circle cx="9" cy="154" r="6" fill="#fafafa"/><circle cx="-9" cy="155" r="3" fill="#052e22"/><circle cx="9" cy="155" r="3" fill="#052e22"/></g></g><g transform="translate(110,70)"><animateTransform attributeName="transform" type="translate" from="110 70" to="1170 70" dur="10.0s" repeatCount="indefinite"/><circle cx="0" cy="0" r="26" fill="#34d399"/><polygon points="0,0 30,-17 30,17" fill="#0d1117"><animate attributeName="points" values="0,0 30,-17 30,17;0,0 30,0 30,0;0,0 30,-17 30,17" dur="0.45s" repeatCount="indefinite"/></polygon><circle cx="-6" cy="-10" r="3.5" fill="#052e22"/></g></svg>