<svg xmlns="http://www.w3.org/2000/svg" width="1120" height="506" viewBox="0 0 1120 506"><text x="560.0" y="32" text-anchor="middle" font-family="Arial, sans-serif" font-size="14" letter-spacing="6" fill="#475569">BACKEND</text><svg x="80.0" y="44" width="64" height="64" viewBox="0 0 256 256"><g transform="translate(0, 0)">
          <svg xmlns="http://www.w3.org/2000/svg" width="256" height="256" fill="none" viewBox="0 0 256 256"><rect width="256" height="256" fill="#242938" rx="60"/><path fill="#81CD39" d="M119.878 31.1164C124.797 28.3008 131.203 28.2883 136.117 31.1164C160.839 45.0855 185.569 59.0332 210.287 73.0108C214.937 75.6296 218.046 80.8038 217.999 86.1608V170.206C218.034 175.785 214.617 181.083 209.712 183.642C185.071 197.535 160.442 211.444 135.805 225.337C130.786 228.207 124.251 227.986 119.387 224.88C112 220.598 104.6 216.336 97.2121 212.058C95.7022 211.158 94.0004 210.442 92.9345 208.978C93.8766 207.708 95.5618 207.55 96.9309 206.995C100.014 206.014 102.847 204.44 105.679 202.913C106.396 202.423 107.27 202.611 107.957 203.049C114.274 206.671 120.536 210.399 126.874 213.986C128.226 214.767 129.595 213.73 130.751 213.086C154.931 199.419 179.141 185.805 203.318 172.134C204.214 171.703 204.709 170.752 204.636 169.771C204.653 142.046 204.64 114.317 204.645 86.5918C204.747 85.4785 204.103 84.455 203.096 83.999C178.541 70.1702 153.997 56.3205 129.446 42.4882C128.575 41.8893 127.426 41.8878 126.554 42.4837C102.002 56.3205 77.4638 70.1832 52.9124 84.011C51.9092 84.4675 51.236 85.4745 51.3554 86.5918C51.3596 114.317 51.3554 142.046 51.3554 169.775C51.2682 170.756 51.801 171.687 52.6906 172.109C59.2422 175.824 65.8024 179.513 72.3582 183.216C76.0516 185.203 80.5863 186.385 84.6555 184.862C88.2463 183.574 90.7633 179.909 90.6948 176.097C90.7288 148.534 90.6778 120.967 90.7203 93.4078C90.6309 92.1841 91.7912 91.1731 92.981 91.2885C96.1292 91.267 99.281 91.2461 102.429 91.297C103.743 91.267 104.647 92.5847 104.485 93.8174C104.472 121.555 104.519 149.293 104.464 177.03C104.472 184.423 101.435 192.467 94.5973 196.084C86.1737 200.447 75.7619 199.522 67.4399 195.338C60.2355 191.742 53.3603 187.498 46.2838 183.646C41.3661 181.101 37.966 175.782 38.0006 170.207V86.1608C37.949 80.6929 41.1825 75.4248 45.9764 72.8445C70.6133 58.9408 95.2461 45.0261 119.878 31.1164Z"/><path fill="#81CD39" d="M141.372 89.3351C152.117 88.6433 163.62 88.9255 173.289 94.2185C180.776 98.2754 184.926 106.789 185.058 115.106C184.849 116.227 183.676 116.846 182.605 116.769C179.488 116.765 176.369 116.812 173.252 116.748C171.929 116.799 171.161 115.58 170.995 114.411C170.099 110.431 167.928 106.49 164.183 104.57C158.433 101.692 151.767 101.837 145.497 101.897C140.92 102.139 135.998 102.536 132.12 105.227C129.143 107.266 128.239 111.382 129.301 114.697C130.303 117.077 133.05 117.845 135.299 118.553C148.248 121.94 161.97 121.602 174.672 126.059C179.931 127.876 185.075 131.409 186.875 136.915C189.23 144.295 188.198 153.115 182.947 159.039C178.689 163.914 172.488 166.568 166.303 168.009C158.075 169.844 149.536 169.891 141.18 169.076C133.323 168.18 125.146 166.116 119.081 160.763C113.894 156.259 111.361 149.241 111.612 142.469C111.672 141.325 112.811 140.527 113.907 140.621C117.046 140.596 120.186 140.587 123.325 140.626C124.58 140.536 125.509 141.62 125.574 142.802C126.152 146.593 127.577 150.573 130.884 152.82C137.264 156.937 145.271 156.655 152.577 156.77C158.63 156.502 165.425 156.421 170.364 152.42C172.97 150.138 173.742 146.32 173.038 143.036C172.275 140.263 169.374 138.971 166.883 138.126C154.1 134.083 140.224 135.55 127.565 130.977C122.425 129.161 117.455 125.727 115.481 120.447C112.726 112.974 113.988 103.73 119.789 98.0061C125.445 92.312 133.609 90.1192 141.372 89.3346V89.3351"/></svg>
        </g></svg><text x="112.0" y="138" text-anchor="middle" font-family="'Segoe UI', Arial, sans-serif" font-size="20" font-weight="600" fill="#cbd5e1">Node.js</text><svg x="304.0" y="44" width="64" height="64" viewBox="0 0 256 256"><g transform="translate(0, 0)">
          <svg xmlns="http://www.w3.org/2000/svg" width="256" height="256" fill="none" viewBox="0 0 256 256"><rect width="256" height="256" fill="#242938" rx="60"/><path fill="#fff" d="M49.158 100.246H77.566C85.904 100.316 91.946 102.72 95.692 107.454C99.438 112.188 100.674 118.654 99.402 126.852C98.908 130.598 97.812 134.272 96.116 137.876C94.49 141.48 92.23 144.73 89.332 147.628C85.798 151.302 82.018 153.634 77.99 154.624C73.962 155.614 69.792 156.108 65.482 156.108H52.762L48.734 176.248H34L49.158 100.246V100.246ZM61.56 112.33L55.2 144.13C55.624 144.2 56.048 144.236 56.472 144.236C56.966 144.236 57.462 144.236 57.956 144.236C64.74 144.306 70.394 143.636 74.916 142.222C79.438 140.738 82.478 135.58 84.032 126.746C85.304 119.326 84.032 115.05 80.216 113.92C76.47 112.79 71.772 112.26 66.118 112.33C65.27 112.4 64.458 112.436 63.68 112.436C62.974 112.436 62.232 112.436 61.454 112.436L61.56 112.33"/><path fill="#fff" d="M116.186 80H130.814L126.68 100.246H139.824C147.032 100.388 152.402 101.872 155.936 104.698C159.54 107.524 160.6 112.896 159.116 120.81L152.014 156.108H137.174L143.958 122.4C144.664 118.866 144.452 116.358 143.322 114.874C142.192 113.39 139.754 112.648 136.008 112.648L124.242 112.542L115.55 156.108H100.922L116.186 80Z"/><path fill="#fff" d="M174.824 100.246H203.232C211.57 100.316 217.612 102.72 221.358 107.454C225.104 112.188 226.34 118.654 225.068 126.852C224.574 130.598 223.478 134.272 221.782 137.876C220.156 141.48 217.896 144.73 214.998 147.628C211.464 151.302 207.684 153.634 203.656 154.624C199.628 155.614 195.458 156.108 191.148 156.108H178.428L174.4 176.248H159.666L174.824 100.246V100.246ZM187.226 112.33L180.866 144.13C181.29 144.2 181.714 144.236 182.138 144.236C182.632 144.236 183.128 144.236 183.622 144.236C190.406 144.306 196.06 143.636 200.582 142.222C205.104 140.738 208.144 135.58 209.698 126.746C210.97 119.326 209.698 115.05 205.882 113.92C202.136 112.79 197.438 112.26 191.784 112.33C190.936 112.4 190.124 112.436 189.346 112.436C188.64 112.436 187.898 112.436 187.12 112.436L187.226 112.33"/></svg>
        </g></svg><text x="336.0" y="138" text-anchor="middle" font-family="'Segoe UI', Arial, sans-serif" font-size="20" font-weight="600" fill="#cbd5e1">PHP</text><svg x="528.0" y="44" width="64" height="64" viewBox="0 0 256 256"><g transform="translate(0, 0)">
          <svg xmlns="http://www.w3.org/2000/svg" width="256" height="256" fill="none" viewBox="0 0 256 256"><rect width="256" height="256" fill="#242938" rx="60"/><path fill="#FF2D20" fill-rule="evenodd" d="M215.846 78.3138C215.91 78.5572 215.944 78.8083 215.944 79.0605V118.26C215.944 118.763 215.813 119.257 215.565 119.692C215.316 120.128 214.958 120.489 214.528 120.739L182.082 139.681V177.226C182.082 178.248 181.547 179.191 180.673 179.706L112.945 219.241C112.79 219.33 112.621 219.387 112.452 219.448C112.388 219.47 112.329 219.509 112.262 219.527C111.788 219.653 111.291 219.653 110.817 219.527C110.74 219.505 110.669 219.462 110.595 219.434C110.44 219.377 110.278 219.327 110.13 219.241L42.4164 179.706C41.9862 179.455 41.6288 179.094 41.3801 178.659C41.1314 178.224 41.0003 177.729 41 177.226V59.6288C41 59.3715 41.0352 59.1214 41.0986 58.8785C41.1198 58.7963 41.1691 58.7213 41.1973 58.6391C41.2501 58.4891 41.2995 58.3355 41.377 58.1961C41.4298 58.1032 41.5073 58.0282 41.5708 57.9425C41.6518 57.8281 41.7258 57.7102 41.8209 57.6102C41.9019 57.528 42.0076 57.4673 42.0993 57.3959C42.2014 57.3101 42.293 57.2172 42.4093 57.1493H42.4128L76.2714 37.3818C76.7001 37.1317 77.1861 37 77.6807 37C78.1753 37 78.6613 37.1317 79.09 37.3818L112.949 57.1493H112.956C113.068 57.2208 113.164 57.3101 113.266 57.3923C113.357 57.4637 113.459 57.528 113.54 57.6066C113.639 57.7102 113.71 57.8281 113.794 57.9425C113.854 58.0282 113.935 58.1032 113.984 58.1961C114.065 58.339 114.111 58.4891 114.168 58.6391C114.196 58.7213 114.245 58.7963 114.266 58.8821C114.331 59.1255 114.364 59.3766 114.365 59.6288V133.079L142.579 116.606V79.0569C142.579 78.8068 142.614 78.5531 142.678 78.3138C142.703 78.228 142.748 78.153 142.777 78.0708C142.833 77.9208 142.882 77.7672 142.96 77.6278C143.013 77.5349 143.09 77.4599 143.15 77.3742C143.235 77.2598 143.305 77.1419 143.404 77.0419C143.485 76.9597 143.587 76.899 143.679 76.8275C143.784 76.7418 143.876 76.6489 143.989 76.581H143.993L177.855 56.8135C178.283 56.563 178.769 56.4311 179.264 56.4311C179.759 56.4311 180.245 56.563 180.673 56.8135L214.532 76.581C214.652 76.6525 214.743 76.7418 214.849 76.824C214.937 76.8954 215.039 76.9597 215.12 77.0383C215.219 77.1419 215.289 77.2598 215.374 77.3742C215.437 77.4599 215.515 77.5349 215.564 77.6278C215.645 77.7672 215.691 77.9208 215.747 78.0708C215.779 78.153 215.825 78.228 215.846 78.3138H215.846ZM210.3 116.606V84.0086L198.451 90.9253L182.082 100.482V133.079L210.303 116.606H210.3ZM176.441 175.572V142.954L160.34 152.279L114.361 178.888V211.813L176.441 175.572ZM46.6443 64.5769V175.572L108.717 211.81V178.891L76.289 160.281L76.2784 160.274L76.2643 160.267C76.1551 160.203 76.0635 160.11 75.9613 160.031C75.8732 159.96 75.7711 159.903 75.6936 159.824L75.6866 159.814C75.595 159.724 75.5315 159.614 75.454 159.513C75.3835 159.417 75.299 159.335 75.2426 159.235L75.2386 159.224C75.1752 159.117 75.1364 158.988 75.0906 158.867C75.0448 158.76 74.9849 158.66 74.9568 158.545V158.541C74.9216 158.406 74.9145 158.263 74.9004 158.123C74.8863 158.016 74.8581 157.909 74.8581 157.802V157.795V81.0505L58.493 71.49L46.6443 64.5805V64.5769ZM77.6842 43.1624L49.4735 59.6288L77.6772 76.0951L105.884 59.6252L77.6772 43.1624H77.6842ZM92.3551 145.926L108.721 136.373V64.5769L96.8719 71.4936L80.5029 81.0504V152.847L92.3551 145.926ZM179.264 62.5941L151.056 79.0605L179.264 95.5268L207.467 79.0569L179.264 62.5941ZM176.441 100.482L160.072 90.9253L148.224 84.0086V116.606L164.589 126.159L176.441 133.079V100.482ZM111.536 173.94L152.909 149.988L173.591 138.02L145.405 121.564L112.952 140.51L83.3743 157.777L111.536 173.94Z" clip-rule="evenodd"/></svg>
        </g></svg><text x="560.0" y="138" text-anchor="middle" font-family="'Segoe UI', Arial, sans-serif" font-size="20" font-weight="600" fill="#cbd5e1">Laravel</text><svg x="752.0" y="44" width="64" height="64" viewBox="0 0 256 256"><g transform="translate(0, 0)">
          <svg width="256" height="256" viewBox="0 0 256 256" fill="none" xmlns="http://www.w3.org/2000/svg">
<rect width="256" height="256" rx="60" fill="#F0DB4F"/>
<path d="M67.3117 213.932L86.9027 202.076C90.6821 208.777 94.1202 214.447 102.367 214.447C110.272 214.447 115.256 211.355 115.256 199.327V117.529H139.314V199.667C139.314 224.584 124.708 235.926 103.398 235.926C84.1533 235.926 72.9819 225.959 67.3113 213.93" fill="#323330"/>
<path d="M152.381 211.354L171.969 200.013C177.126 208.434 183.828 214.62 195.684 214.62C205.653 214.62 212.009 209.636 212.009 202.762C212.009 194.514 205.479 191.592 194.481 186.782L188.468 184.203C171.111 176.815 159.597 167.535 159.597 147.945C159.597 129.901 173.345 116.153 194.826 116.153C210.12 116.153 221.118 121.481 229.022 135.4L210.291 147.429C206.166 140.04 201.7 137.119 194.826 137.119C187.78 137.119 183.312 141.587 183.312 147.429C183.312 154.646 187.78 157.568 198.09 162.037L204.104 164.614C224.553 173.379 236.067 182.313 236.067 202.418C236.067 224.072 219.055 235.928 196.2 235.928C173.861 235.928 159.426 225.274 152.381 211.354" fill="#323330"/>
</svg>

        </g></svg><text x="784.0" y="138" text-anchor="middle" font-family="'Segoe UI', Arial, sans-serif" font-size="20" font-weight="600" fill="#cbd5e1">JavaScript</text><svg x="976.0" y="44" width="64" height="64" viewBox="0 0 256 256"><g transform="translate(0, 0)">
          <svg xmlns="http://www.w3.org/2000/svg" width="256" height="256" fill="none" viewBox="0 0 256 256"><rect width="256" height="256" fill="#242938" rx="60"/><path fill="#00D8FF" d="M128.001 146.951C138.305 146.951 146.657 138.598 146.657 128.295C146.657 117.992 138.305 109.639 128.001 109.639C117.698 109.639 109.345 117.992 109.345 128.295C109.345 138.598 117.698 146.951 128.001 146.951Z"/><path fill-rule="evenodd" stroke="#00D8FF" stroke-width="8.911" d="M128.002 90.3633C153.05 90.3633 176.319 93.9575 193.864 99.9976C215.003 107.275 228 118.306 228 128.295C228 138.704 214.226 150.423 191.525 157.944C174.363 163.63 151.779 166.598 128.002 166.598C103.624 166.598 80.5389 163.812 63.1834 157.881C41.2255 150.376 28 138.506 28 128.295C28 118.387 40.4096 107.441 61.2515 100.175C78.8617 94.0353 102.705 90.3633 127.998 90.3633H128.002Z" clip-rule="evenodd"/><path fill-rule="evenodd" stroke="#00D8FF" stroke-width="8.911" d="M94.9811 109.438C107.495 87.7402 122.232 69.3783 136.23 57.1971C153.094 42.5206 169.144 36.7728 177.796 41.7623C186.813 46.9623 190.084 64.7496 185.259 88.1712C181.614 105.879 172.9 126.925 161.021 147.523C148.842 168.641 134.897 187.247 121.09 199.315C103.619 214.587 86.7284 220.114 77.8833 215.013C69.3003 210.067 66.0181 193.846 70.1356 172.161C73.6145 153.838 82.3451 131.349 94.977 109.438L94.9811 109.438Z" clip-rule="evenodd"/><path fill-rule="evenodd" stroke="#00D8FF" stroke-width="8.911" d="M95.0123 147.578C82.4633 125.904 73.9194 103.962 70.3531 85.7517C66.0602 63.8109 69.0954 47.0355 77.7401 42.0315C86.7485 36.8163 103.792 42.866 121.674 58.7437C135.194 70.7479 149.077 88.8052 160.99 109.383C173.204 130.481 182.358 151.856 185.919 169.844C190.425 192.608 186.778 210.001 177.941 215.116C169.367 220.08 153.676 214.825 136.945 200.427C122.809 188.263 107.685 169.468 95.0123 147.578Z" clip-rule="evenodd"/></svg>
        </g></svg><text x="1008.0" y="138" text-anchor="middle" font-family="'Segoe UI', Arial, sans-serif" font-size="20" font-weight="600" fill="#cbd5e1">React</text><text x="560.0" y="190" text-anchor="middle" font-family="Arial, sans-serif" font-size="14" letter-spacing="6" fill="#475569">FRONTEND AND DATA</text><svg x="80.0" y="202" width="64" height="64" viewBox="0 0 256 256"><g transform="translate(0, 0)">
          <svg xmlns="http://www.w3.org/2000/svg" width="256" height="256" fill="none" viewBox="0 0 256 256"><rect width="256" height="256" fill="#E14E1D" rx="60"/><path fill="#fff" d="M48 38L56.6098 134.593H167.32L163.605 176.023L127.959 185.661L92.38 176.037L90.0012 149.435H57.9389L62.5236 200.716L127.951 218.888L193.461 200.716L202.244 102.655H85.8241L82.901 69.9448H205.041H205.139L208 38H48Z"/><path fill="#EBEBEB" d="M128 38H48L56.6098 134.593H128V102.655H85.8241L82.901 69.9448H128V38Z"/><path fill="#EBEBEB" d="M128 185.647L127.959 185.661L92.38 176.037L90.0012 149.435H57.9388L62.5236 200.716L127.951 218.888L128 218.874V185.647Z"/></svg>
        </g></svg><text x="112.0" y="296" text-anchor="middle" font-family="'Segoe UI', Arial, sans-serif" font-size="20" font-weight="600" fill="#cbd5e1">HTML5</text><svg x="304.0" y="202" width="64" height="64" viewBox="0 0 256 256"><g transform="translate(0, 0)">
          <svg width="256" height="256" viewBox="0 0 256 256" fill="none" xmlns="http://www.w3.org/2000/svg">
<rect width="256" height="256" rx="60" fill="#0277BD"/>
<path d="M53.7527 102.651L56.6155 134.593H128.096V102.651H53.7527Z" fill="#EBEBEB"/>
<path d="M128.095 38H127.985H48L50.9036 69.9423H128.095V38Z" fill="#EBEBEB"/>
<path d="M128.095 218.841V185.608L127.955 185.645L92.3813 176.04L90.1072 150.564H72.821H58.0425L62.5175 200.718L127.948 218.882L128.095 218.841Z" fill="#EBEBEB"/>
<path d="M167.318 134.593L163.61 176.019L127.985 185.635V218.866L193.468 200.718L193.948 195.321L201.454 111.229L202.233 102.651L208 38H127.985V69.9423H172.994L170.088 102.651H127.985V134.593H167.318Z" fill="white"/>
</svg>

        </g></svg><text x="336.0" y="296" text-anchor="middle" font-family="'Segoe UI', Arial, sans-serif" font-size="20" font-weight="600" fill="#cbd5e1">CSS3</text><svg x="528.0" y="202" width="64" height="64" viewBox="0 0 256 256"><g transform="translate(0, 0)">
          <svg xmlns="http://www.w3.org/2000/svg" width="256" height="256" fill="none" viewBox="0 0 256 256"><rect width="256" height="256" fill="#242938" rx="60"/><g clip-path="url(#mysql_clip0_7_147)"><path fill="#fff" fill-rule="evenodd" d="M203.801 178.21C194.011 177.938 186.416 178.941 180.051 181.619C178.218 182.355 175.277 182.355 175.035 184.662C176.015 185.63 176.133 187.214 176.992 188.556C178.459 190.991 181.033 194.271 183.357 195.973L191.191 201.571C195.965 204.488 201.351 206.193 206.002 209.113C208.696 210.817 211.388 213.007 214.082 214.834C215.454 215.807 216.285 217.392 218 217.997V217.629C217.144 216.538 216.897 214.957 216.044 213.735L212.367 210.209C208.82 205.465 204.41 201.325 199.636 197.922C195.718 195.245 187.152 191.596 185.56 187.097L185.319 186.824C188.008 186.552 191.191 185.605 193.764 184.875C197.929 183.784 201.721 184.024 206.002 182.93L211.882 181.226V180.135C209.678 177.946 208.087 175.025 205.763 172.959C199.521 167.606 192.661 162.373 185.56 157.994C181.766 155.562 176.868 153.977 172.829 151.913C171.356 151.182 168.911 150.817 168.055 149.601C165.846 146.929 164.625 143.397 163.034 140.232L152.997 119.064C150.794 114.319 149.444 109.574 146.755 105.195C134.144 84.5124 120.431 71.9828 99.375 59.6932C94.8477 57.1382 89.4616 56.0393 83.7353 54.7032L74.5546 54.2124C72.5928 53.3616 70.6364 51.0493 68.9216 49.9531C61.9441 45.5739 43.9475 36.0847 38.8029 48.5897C35.4966 56.4974 43.7006 64.2824 46.4855 68.299C48.5708 71.0966 51.2597 74.2597 52.7332 77.4228C53.5563 79.4897 53.8307 81.682 54.6895 83.8717C56.6458 89.2243 58.4842 95.1878 61.0551 100.178C62.427 102.733 63.8675 105.413 65.5824 107.723C66.5619 109.086 68.2768 109.67 68.6417 111.859C66.9268 114.294 66.8089 117.94 65.8293 120.986C61.42 134.734 63.1349 151.766 69.377 161.888C71.3389 164.928 75.9622 171.622 82.2345 169.065C87.744 166.875 86.5148 159.941 88.1062 153.857C88.4766 152.399 88.2297 151.425 88.9623 150.449V150.722L93.9834 160.819C97.7781 166.78 104.391 172.986 109.897 177.125C112.833 179.315 115.16 183.089 118.831 184.425V184.057H118.59C117.854 182.966 116.751 182.475 115.772 181.624C113.569 179.435 111.121 176.757 109.406 174.325C104.267 167.513 99.7399 159.968 95.6983 152.183C93.7365 148.412 92.0216 144.275 90.4357 140.504C89.6949 139.043 89.6949 136.85 88.4739 136.125C86.6355 138.797 83.9466 141.115 82.5939 144.398C80.2672 149.628 80.0257 156.077 79.1697 162.769C78.6758 162.891 78.8953 162.769 78.6758 163.041C74.7631 162.071 73.4132 158.051 71.9453 154.648C68.274 146.01 67.6594 132.141 70.8422 122.164C71.6983 119.609 75.375 111.579 73.9071 109.146C73.1662 106.834 70.7242 105.498 69.3743 103.671C67.7829 101.359 66.0735 98.4409 64.9705 95.8859C62.0346 89.0689 60.5667 81.5293 57.3812 74.7151C55.9077 71.552 53.3396 68.2662 51.257 65.3486C48.9303 62.0628 46.3648 59.7505 44.5265 55.8593C43.9146 54.4959 43.0585 52.3309 44.0381 50.8693C44.2795 49.8959 44.7734 49.5059 45.7475 49.2878C47.3389 47.9244 51.8716 49.6532 53.463 50.3785C57.9903 52.2054 61.7849 53.907 65.5796 56.4592C67.2945 57.6754 69.1329 59.9877 71.3361 60.5985H73.9098C77.8279 61.4493 82.2317 60.8712 85.9002 61.9619C92.3893 64.0343 98.2637 67.0719 103.532 70.3604C119.567 80.4577 132.792 94.8143 141.725 111.971C143.193 114.769 143.805 117.324 145.155 120.244C147.729 126.208 150.912 132.289 153.477 138.132C156.051 143.85 158.498 149.694 162.17 154.438C164.008 156.993 171.35 158.329 174.654 159.668C177.104 160.759 180.896 161.741 183.105 163.077C187.264 165.632 191.427 168.552 195.342 171.35C197.298 172.806 203.423 175.849 203.787 178.276L203.801 178.21ZM78.9584 72.4873C77.267 72.4724 75.5809 72.6769 73.9427 73.0954V73.3681H74.1842C75.1637 75.315 76.8786 76.6538 78.1023 78.3581L80.9202 84.1989L81.1616 83.9262C82.8765 82.71 83.7353 80.7631 83.7353 77.8454C83 76.9947 82.8793 76.1412 82.2674 75.2904C81.5321 74.0743 79.9407 73.4635 78.9584 72.4928V72.4873Z" clip-rule="evenodd"/></g><defs><clipPath id="mysql_clip0_7_147"><rect width="180" height="180" fill="#fff" transform="translate(38 38)"/></clipPath></defs></svg>
        </g></svg><text x="560.0" y="296" text-anchor="middle" font-family="'Segoe UI', Arial, sans-serif" font-size="20" font-weight="600" fill="#cbd5e1">MySQL</text><svg x="752.0" y="202" width="64" height="64" viewBox="0 0 256 256"><g transform="translate(0, 0)">
          <svg width="256" height="256" viewBox="0 0 256 256" fill="none" xmlns="http://www.w3.org/2000/svg">
<g clip-path="url(#sqlite_clip0_307_145)">
<path d="M60 0C26.8629 0 0 26.8629 0 60V196C0 229.137 26.8629 256 60 256H168.46C166.681 250.757 165.288 242.454 164.504 232.977C163.829 224.825 163.605 215.806 163.979 207.107C163.878 205.821 163.817 204.985 163.817 204.985C163.817 204.985 161.943 192.375 159.246 182.016C158.052 177.418 156.693 173.26 155.266 170.85C154.531 169.607 155.346 164.499 157.397 156.934C158.597 159.005 163.66 167.866 164.677 170.722C165.822 173.95 166.062 174.875 166.062 174.875C166.062 174.875 163.285 160.603 158.729 152.275C159.728 148.908 160.921 145.187 162.271 141.209C163.849 143.976 167.436 150.33 168.732 153.341C168.852 153.62 168.96 153.882 169.039 154.098C169.223 154.62 169.378 155.063 169.517 155.469C170.248 157.587 170.426 158.261 170.426 158.261C170.426 158.261 170.155 156.875 169.651 154.737C169.438 153.834 169.173 152.772 168.878 151.641C167.73 147.232 165.986 141.46 163.753 136.937C169.485 107.143 187.934 68.1305 207.81 47.0689C209.523 45.2554 211.244 43.5577 212.968 42.0275C224.587 31.7274 236.36 28.2483 246.083 36.9095C253.117 43.1773 255.995 51.8346 256 61.8004V60C256 26.8629 229.137 0 196 0H60Z" fill="#D9D9D9"/>
<path d="M60 0C26.8629 0 0 26.8629 0 60V196C0 229.137 26.8629 256 60 256H168.46C166.681 250.757 165.288 242.454 164.504 232.977C163.829 224.825 163.605 215.806 163.979 207.107C163.878 205.821 163.817 204.985 163.817 204.985C163.817 204.985 161.943 192.375 159.246 182.016C158.052 177.418 156.693 173.26 155.266 170.85C154.531 169.607 155.346 164.499 157.397 156.934C158.597 159.005 163.66 167.866 164.677 170.722C165.822 173.95 166.062 174.875 166.062 174.875C166.062 174.875 163.285 160.603 158.729 152.275C159.728 148.908 160.921 145.187 162.271 141.209C163.849 143.976 167.436 150.33 168.732 153.341C168.852 153.62 168.96 153.882 169.039 154.098C169.223 154.62 169.378 155.063 169.517 155.469C170.248 157.587 170.426 158.261 170.426 158.261C170.426 158.261 170.155 156.875 169.651 154.737C169.438 153.834 169.173 152.772 168.878 151.641C167.73 147.232 165.986 141.46 163.753 136.937C169.485 107.143 187.934 68.1305 207.81 47.0689C209.523 45.2554 211.244 43.5577 212.968 42.0275C224.587 31.7274 236.36 28.2483 246.083 36.9095C253.117 43.1773 255.995 51.8346 256 61.8004V60C256 26.8629 229.137 0 196 0H60Z" fill="url(#sqlite_paint0_linear_307_145)"/>
<path d="M246.083 36.9095C236.36 28.2483 224.587 31.7274 212.968 42.0275C211.244 43.5577 209.523 45.2554 207.81 47.0689C187.934 68.1305 169.485 107.143 163.753 136.937C165.986 141.46 167.73 147.232 168.878 151.641C169.173 152.772 169.438 153.834 169.651 154.737C170.155 156.875 170.426 158.261 170.426 158.261C170.426 158.261 170.248 157.587 169.517 155.469C169.378 155.063 169.223 154.62 169.039 154.098C168.96 153.882 168.852 153.62 168.732 153.341C167.436 150.33 163.849 143.976 162.271 141.209C160.921 145.187 159.728 148.908 158.729 152.275C163.285 160.603 166.062 174.875 166.062 174.875C166.062 174.875 165.822 173.95 164.677 170.722C163.66 167.866 158.597 159.005 157.397 156.934C155.346 164.499 154.531 169.607 155.266 170.85C156.693 173.26 158.052 177.418 159.246 182.016C161.943 192.375 163.817 204.985 163.817 204.985C163.817 204.985 163.878 205.821 163.979 207.107C163.605 215.806 163.829 224.825 164.504 232.977C165.397 243.768 167.079 253.039 169.223 258L170.678 257.207C167.53 247.433 166.251 234.623 166.811 219.849C167.658 197.268 172.861 170.036 182.473 141.653C198.713 98.8063 221.245 64.4287 241.867 48.0113C223.071 64.9667 197.632 119.85 190.017 140.174C181.491 162.933 175.448 184.291 171.807 204.753C178.09 185.57 198.405 177.324 198.405 177.324C198.405 177.324 208.369 165.05 220.013 147.514C213.038 149.103 201.585 151.823 197.748 153.433C192.09 155.804 190.565 156.613 190.565 156.613C190.565 156.613 208.895 145.463 224.621 140.415C246.249 106.39 269.811 58.0531 246.083 36.9095" fill="#003B57"/>
<path d="M28.5202 49C25.4571 49 22.9663 49.8947 21.0568 51.6832C19.1473 53.4733 18.1786 55.8197 18.1786 58.6947C18.1786 60.1847 18.4192 61.5432 18.8932 62.788C19.3672 64.0354 20.1048 65.1909 21.0965 66.235C22.0882 67.2801 24.0732 68.6997 27.0315 70.5046C30.6616 72.6912 33.0372 74.4658 34.1773 75.8514C35.3183 77.2358 35.8844 78.6867 35.8844 80.1993C35.8844 82.2246 35.2087 83.8412 33.8201 85.0565C32.429 86.2722 30.5687 86.8779 28.2622 86.8779C25.8294 86.8779 23.7103 86.0317 21.8905 84.3514C20.0707 82.6686 19.1521 80.4429 19.1314 77.6532H18V87.7788H19.1314C19.4768 86.82 19.9548 86.3295 20.5804 86.3295C20.8814 86.3295 21.5864 86.5343 22.6845 86.917C25.3562 87.855 27.55 88.3076 29.2745 88.3076C32.2464 88.3076 34.7832 87.2806 36.8967 85.1935C39.0071 83.1074 40.0727 80.591 40.0727 77.6532C40.0727 75.3752 39.3692 73.3485 37.9885 71.5818C36.6077 69.813 33.9225 67.7556 29.9097 65.3929C26.4567 63.3459 24.2153 61.6787 23.1807 60.379C22.1446 59.0812 21.6126 57.6456 21.6126 56.0703C21.6126 54.3664 22.247 52.9977 23.4983 51.977C24.7496 50.9554 26.3892 50.4493 28.4408 50.4493C30.7497 50.4493 32.6743 51.1254 34.1972 52.4862C35.7185 53.8493 36.5982 55.7383 36.857 58.1659H37.9885V49.3917H36.9364C36.8078 49.839 36.6887 50.125 36.5791 50.2535C36.4727 50.3812 36.2679 50.4493 35.9638 50.4493C35.5978 50.4493 34.9451 50.2973 34.0186 49.9988C32.0336 49.3392 30.2035 49 28.5202 49ZM65.4999 49C61.7674 49 58.3787 49.868 55.3171 51.6048C52.2507 53.3385 49.8235 55.7459 48.0323 58.8122C46.2419 61.8782 45.3526 65.1346 45.3526 68.6048C45.3526 73.2671 46.8993 77.4206 50.0173 81.0611C53.1368 84.6993 56.8749 86.9663 61.2124 87.8376C62.2041 88.3474 63.6229 89.6635 65.48 91.7938C67.573 94.1978 69.3435 95.9318 70.7997 96.9643C72.2543 97.9974 73.8248 98.7545 75.4842 99.2558C77.1452 99.7549 78.9412 100 80.8832 100C83.235 100 85.3406 99.5967 87.1954 98.7661L86.7785 97.7477C85.7019 98.1309 84.5538 98.3157 83.3446 98.3157C81.7034 98.3157 80.0448 97.7817 78.3822 96.7097C76.722 95.635 74.6457 93.5846 72.1693 90.5599C71.0053 89.1106 70.2018 88.1962 69.7477 87.8376C74.4933 86.9232 78.3957 84.6538 81.439 81.0219C84.4816 77.3916 86.0044 73.2484 86.0044 68.6048C86.0044 63.0913 84.0163 58.4576 80.0694 54.6797C76.1194 50.9015 71.2618 49 65.4999 49ZM88.5848 49L88.6444 50.1947C91.1295 50.1947 92.5214 50.917 92.8326 52.3687C92.9485 52.8881 93.0017 53.8471 93.0113 55.2281L92.9914 81.6486C92.9708 83.6219 92.6858 84.8818 92.1379 85.4286C91.5893 85.9715 90.6619 86.3115 89.3193 86.447L89.2598 87.6417H114.032L114.667 81.6486H113.536C113.213 83.2812 112.472 84.4508 111.293 85.1152C110.11 85.7845 108.02 86.1141 105 86.1141H102.658C99.9412 86.1141 98.3691 85.1449 97.9539 83.1959C97.8681 82.8103 97.8387 82.3968 97.8348 81.9424L97.934 55.2281C97.9334 53.258 98.1857 51.9378 98.7081 51.2915C99.2361 50.6475 100.188 50.2871 101.566 50.1947L101.507 49H88.5849H88.5848ZM65.8969 50.4493C70.1065 50.4493 73.5437 52.0852 76.1988 55.3848C78.853 58.6855 80.1687 63.2094 80.1687 68.9378C80.1687 74.366 78.834 78.7123 76.1591 81.9816C73.4841 85.2498 69.9239 86.8779 65.4999 86.8779C61.2497 86.8779 57.803 85.199 55.1583 81.8249C52.5159 78.4507 51.2082 74.0701 51.2082 68.6832C51.2082 63.1476 52.5318 58.7164 55.198 55.4044C57.8626 52.0959 61.4307 50.4493 65.8969 50.4493ZM122.865 56.129C122.261 56.129 121.8 56.3304 121.456 56.7362C121.103 57.1404 120.995 57.63 121.118 58.2247C121.237 58.8015 121.567 59.307 122.091 59.7327C122.612 60.158 123.174 60.379 123.778 60.379C124.362 60.379 124.808 60.158 125.128 59.7327C125.448 59.307 125.545 58.8015 125.426 58.2247C125.302 57.63 124.984 57.1404 124.493 56.7362C123.996 56.3304 123.449 56.129 122.865 56.129ZM139.201 60.1832C138.174 64.08 135.949 66.1888 132.532 66.5288L132.571 67.6452H136.561L136.482 80.8456C136.488 83.1025 136.558 84.605 136.72 85.3698C137.113 87.2007 138.325 88.1313 140.352 88.1313C143.286 88.1313 146.364 86.368 149.582 82.8433L148.61 82.0207C146.286 84.3419 144.231 85.5069 142.437 85.5069C141.334 85.5069 140.65 84.8811 140.392 83.6463C140.321 83.3464 140.293 82.996 140.293 82.5887L140.333 67.6452H146.426L146.367 65.8629H140.352V60.1832H139.201H139.201ZM162.762 65.1578C159.354 65.1578 156.581 66.7905 154.426 70.0346C152.281 73.2842 151.617 76.8845 152.461 80.8456C152.957 83.1658 153.945 84.9641 155.458 86.2316C156.968 87.4985 158.884 88.1313 161.174 88.1313C163.307 88.1313 166.277 87.5985 167.526 86.5253C168.779 85.4528 169.934 83.7152 171 81.3353L170.146 80.4539C168.446 83.5413 165.013 85.0956 162.425 85.0956C158.866 85.0956 156.687 83.1692 155.875 79.3376C155.769 78.8485 155.69 78.323 155.636 77.7707C159.87 77.1094 163.078 75.9383 165.244 74.2454C167.407 72.5516 169.58 70.7562 169.174 68.8594C168.932 67.7324 168.339 66.8462 167.427 66.1763C166.503 65.5067 164.103 65.1578 162.762 65.1578ZM125.505 65.2949L118.161 66.9597V68.2523L120.701 67.9389C121.932 67.9389 122.656 68.4888 122.885 69.5841C122.962 69.9507 123.01 70.4654 123.024 71.1118L122.944 82.9608C122.924 84.6005 122.739 85.5537 122.369 85.8399C121.995 86.1266 121.009 86.2707 119.411 86.2707L119.371 87.3871H131.023L131.003 86.2707C129.384 86.2707 128.335 86.1447 127.867 85.8986C127.407 85.6541 127.091 85.2091 126.954 84.5276C126.848 84.0365 126.802 83.1903 126.795 82.0207L126.835 65.2949H125.505H125.505ZM160.897 67.4885C161.606 67.4885 162.291 67.7587 162.981 68.2915C163.661 68.8224 164.076 69.4128 164.211 70.0541C164.876 73.2043 162.045 75.3822 155.676 76.5956C155.494 74.2986 155.898 72.2134 156.927 70.3283C157.948 68.4451 159.278 67.4885 160.897 67.4885Z" fill="#003B57"/>
</g>
<defs>
<linearGradient id="sqlite_paint0_linear_307_145" x1="147.614" y1="5.2389" x2="147.614" y2="241.763" gradientUnits="userSpaceOnUse">
<stop stop-color="#97D9F6"/>
<stop offset="0.920245" stop-color="#0F80CC"/>
<stop offset="1" stop-color="#0F80CC"/>
</linearGradient>
<clipPath id="sqlite_clip0_307_145">
<rect width="256" height="256" rx="60" fill="white"/>
</clipPath>
</defs>
</svg>

        </g></svg><text x="784.0" y="296" text-anchor="middle" font-family="'Segoe UI', Arial, sans-serif" font-size="20" font-weight="600" fill="#cbd5e1">SQLite</text><svg x="976.0" y="202" width="64" height="64" viewBox="0 0 24 24"><path fill="#FFCA28" d="M19.455 8.369c-.538-.748-1.778-2.285-3.681-4.569-.826-.991-1.535-1.832-1.884-2.245a146 146 0 0 0-.488-.576l-.207-.245-.113-.133-.022-.032-.01-.005L12.57 0l-.609.488c-1.555 1.246-2.828 2.851-3.681 4.64-.523 1.064-.864 2.105-1.043 3.176-.047.241-.088.489-.121.738-.209-.017-.421-.028-.632-.033-.018-.001-.035-.002-.059-.003a7.46 7.46 0 0 0-2.28.274l-.317.089-.163.286c-.765 1.342-1.198 2.869-1.252 4.416-.07 2.01.477 3.954 1.583 5.625 1.082 1.633 2.61 2.882 4.42 3.611l.236.095.071.025.003-.001a9.59 9.59 0 0 0 2.941.568q.171.006.342.006c1.273 0 2.513-.249 3.69-.742l.008.004.313-.145a9.63 9.63 0 0 0 3.927-3.335c1.01-1.49 1.577-3.234 1.641-5.042.075-2.161-.643-4.304-2.133-6.371m-7.083 6.695c.328 1.244.264 2.44-.191 3.558-1.135-1.12-1.967-2.352-2.475-3.665-.543-1.404-.87-2.74-.974-3.975.48.157.922.366 1.315.622 1.132.737 1.914 1.902 2.325 3.461zm.207 6.022c.482.368.99.712 1.513 1.028-.771.21-1.565.302-2.369.273a8 8 0 0 1-.373-.022c.458-.394.869-.823 1.228-1.279zm1.347-6.431c-.516-1.957-1.527-3.437-3.002-4.398-.647-.421-1.385-.741-2.194-.95.011-.134.026-.268.043-.4.014-.113.03-.216.046-.313.133-.689.332-1.37.589-2.025.099-.25.206-.499.321-.74l.004-.008c.177-.358.376-.719.61-1.105l.092-.152-.003-.001c.544-.851 1.197-1.627 1.942-2.311l.288.341c.672.796 1.304 1.548 1.878 2.237 1.291 1.549 2.966 3.583 3.612 4.48 1.277 1.771 1.893 3.579 1.83 5.375-.049 1.395-.461 2.755-1.195 3.933-.694 1.116-1.661 2.05-2.8 2.708-.636-.318-1.559-.839-2.539-1.599.79-1.575.952-3.28.479-5.072zm-2.575 5.397c-.725.939-1.587 1.55-2.09 1.856-.081-.029-.163-.06-.243-.093l-.065-.026c-1.49-.616-2.747-1.656-3.635-3.01-.907-1.384-1.356-2.993-1.298-4.653.041-1.19.338-2.327.882-3.379.316-.07.638-.114.96-.131l.084-.002c.162-.003.324-.003.478 0 .227.011.454.035.677.07.073 1.513.445 3.145 1.105 4.852.637 1.644 1.694 3.162 3.144 4.515z"/></svg><text x="1008.0" y="296" text-anchor="middle" font-family="'Segoe UI', Arial, sans-serif" font-size="20" font-weight="600" fill="#cbd5e1">Firebase</text><text x="560.0" y="348" text-anchor="middle" font-family="Arial, sans-serif" font-size="14" letter-spacing="6" fill="#475569">INFRA AND TOOLS</text><svg x="80.0" y="360" width="64" height="64" viewBox="0 0 256 256"><g transform="translate(0, 0)">
          <svg xmlns="http://www.w3.org/2000/svg" width="256" height="256" fill="none" viewBox="0 0 256 256"><rect width="256" height="256" fill="#2396ED" rx="60"/><path fill="#fff" d="M141.187 122.123H161.904V103.379H141.187V122.123ZM116.525 122.123H137.241V103.379H116.525V122.123ZM92.3554 122.123H113.072V103.379H92.3554V122.123ZM68.1859 122.123H88.4093V103.379H68.1859V122.123ZM43.5233 122.123H64.2399V103.379H43.5233V122.123ZM68.1859 99.4333H88.4093V80.6896H68.1859V99.4333ZM92.3554 99.4333H113.072V80.6896H92.3554V99.4333ZM116.525 99.4333H137.241V80.6896H116.525V99.4333ZM116.525 76.7436H137.241V58H116.525V76.7436ZM228 113.738C228 113.738 219.121 105.352 200.871 108.312C198.898 94.0075 183.607 85.6222 183.607 85.6222C183.607 85.6222 169.303 102.886 179.661 122.123C176.702 123.603 171.769 125.576 164.37 125.576H28.7257C26.2594 134.948 26.2594 197.097 94.3284 197.097C143.16 197.097 179.661 174.408 196.925 132.974C222.574 134.948 228 113.738 228 113.738Z"/></svg>
        </g></svg><text x="112.0" y="454" text-anchor="middle" font-family="'Segoe UI', Arial, sans-serif" font-size="20" font-weight="600" fill="#cbd5e1">Docker</text><svg x="304.0" y="360" width="64" height="64" viewBox="0 0 256 256"><g transform="translate(0, 0)">
          <svg xmlns="http://www.w3.org/2000/svg" width="256" height="256" fill="none" viewBox="0 0 256 256"><rect width="256" height="256" fill="#242938" rx="60"/><path fill="#ECEFF1" d="M85.9493 199.926L110.48 213.546H147.576L182.278 187.491L197.834 146.632L161.935 103.405L151.764 79.1268L102.104 80.9032L102.702 94.5228L93.1291 112.287L78.1713 141.303L75.1797 165.581L85.9493 199.926Z"/><path fill="#263238" d="M187.064 114.656C177.491 101.036 169.713 92.7463 165.525 75.5738C161.337 58.4013 166.722 63.1386 163.132 48.3347C161.337 40.6367 158.345 35.3073 155.354 31.1622C151.764 27.0171 147.576 24.6485 145.182 24.0563C139.798 21.0956 127.233 16.3583 111.677 24.6485C95.5223 32.9387 97.3172 50.7033 100.309 86.8248C100.309 89.1934 99.7105 92.1542 98.5139 94.5228C96.1206 99.8522 91.9324 104.589 88.3425 108.735C84.1543 114.656 79.9661 120.578 76.9746 127.091C69.7948 140.711 63.2134 157.883 65.0083 164.397C67.9999 163.805 105.694 220.652 105.694 221.836C108.087 221.244 118.258 221.244 127.233 221.244C139.798 220.652 146.977 220.06 157.149 222.428C157.149 220.652 156.55 218.875 156.55 217.099C156.55 213.546 157.149 210.585 157.747 206.44C158.345 203.479 158.944 200.519 159.542 196.966C153.559 202.295 142.789 208.217 132.618 209.993C123.643 211.769 108.685 208.809 101.505 199.926C102.104 199.926 103.3 199.926 103.899 199.334C105.694 198.742 107.489 198.15 108.087 196.966C109.882 194.005 108.685 191.044 107.489 189.268C106.292 187.491 97.3173 180.977 93.1291 177.425C88.9409 173.872 86.5476 172.095 84.1544 169.727C84.1544 169.727 80.5645 166.174 79.3678 164.989C78.1712 163.805 77.5729 162.621 76.9746 162.028C75.778 159.068 75.1796 155.515 75.778 150.778C76.3763 144.264 78.7695 138.934 81.7611 133.013C82.9577 130.644 85.9493 125.907 85.9493 125.907C85.9493 125.907 75.778 150.778 81.1628 158.476C81.1628 158.476 81.7611 150.778 84.1544 143.08C85.9493 137.75 88.9409 130.052 92.5307 125.907C96.1206 121.762 105.095 106.366 105.694 96.8914C105.694 92.7463 106.292 88.6012 106.292 85.6405C103.899 83.2718 145.781 77.3503 148.174 83.864C148.772 86.2326 157.149 107.55 161.935 118.801C164.328 124.131 167.32 128.868 169.115 134.789C170.91 141.303 172.106 150.185 172.106 159.068C172.106 160.844 172.106 163.805 171.508 166.766C172.705 166.766 196.039 141.895 168.517 121.17C168.517 121.17 185.269 128.868 185.868 144.264C186.466 156.699 181.081 166.766 179.885 168.542C180.483 168.542 192.449 173.872 193.047 173.872C195.441 173.872 200.227 172.095 200.227 172.095C200.826 170.319 202.62 165.581 202.62 163.805C206.809 150.185 196.637 128.276 187.064 114.656V114.656Z"/><path fill="#ECEFF1" d="M111.078 75.5738C115.374 75.5738 118.856 70.2714 118.856 63.7307C118.856 57.1899 115.374 51.8876 111.078 51.8876C106.783 51.8876 103.3 57.1899 103.3 63.7307C103.3 70.2714 106.783 75.5738 111.078 75.5738Z"/><path fill="#ECEFF1" d="M138.002 76.7581C143.62 76.7581 148.174 70.6604 148.174 63.1386C148.174 55.6167 143.62 49.519 138.002 49.519C132.385 49.519 127.831 55.6167 127.831 63.1386C127.831 70.6604 132.385 76.7581 138.002 76.7581Z"/><path fill="#212121" d="M115.424 64.5411C114.927 60.6476 112.663 57.7241 110.368 58.0111C108.074 58.2982 106.616 61.6872 107.114 65.5807C107.611 69.4741 109.874 72.3977 112.169 72.1106C114.464 71.8235 115.921 68.4345 115.424 64.5411Z"/><path fill="#212121" d="M137.404 73.2052C140.709 73.2052 143.387 69.7587 143.387 65.5072C143.387 61.2557 140.709 57.8091 137.404 57.8091C134.1 57.8091 131.421 61.2557 131.421 65.5072C131.421 69.7587 134.1 73.2052 137.404 73.2052Z"/><path fill="#FFC107" d="M216.98 195.781C214.587 194.597 210.398 192.82 206.808 187.491C205.014 184.53 205.612 176.24 202.62 172.687C200.825 170.319 198.432 171.503 197.834 171.503C192.449 172.687 179.884 180.977 171.508 171.503C170.311 170.319 168.516 168.542 165.525 168.542C162.533 168.542 161.337 169.726 160.14 172.095C158.943 174.464 158.943 176.24 158.943 182.162C158.943 186.899 158.943 192.228 158.345 196.373C157.148 206.44 155.354 212.362 155.354 218.283C155.354 224.797 157.148 228.942 159.542 230.718C161.337 232.495 164.328 233.679 170.91 233.679C177.491 233.679 181.679 231.311 185.868 227.165C188.859 224.205 191.252 223.02 199.629 217.099C206.21 212.954 216.382 207.624 218.176 205.848C219.373 204.664 221.168 204.071 221.168 200.518C221.168 197.558 218.775 196.373 216.98 195.781V195.781Z"/><path fill="#FFC107" d="M96.7189 197.558C90.7357 188.083 90.1374 186.307 85.9492 180.385C82.3593 174.464 74.5813 163.213 69.7948 163.213C66.2049 163.213 64.4099 164.989 62.0167 167.358C59.6234 169.726 57.2302 175.056 53.042 178.017C49.4521 180.977 39.2808 180.385 36.8875 183.938C34.4942 187.491 39.2808 192.821 39.2808 201.703C39.2808 205.256 36.2892 207.624 35.6909 209.993C35.0926 212.954 34.4942 214.73 35.6909 217.099C38.0841 220.652 41.0757 221.836 61.4184 225.981C72.188 228.35 82.3593 234.271 88.9408 234.864C95.5222 235.456 106.89 234.864 106.89 218.875C107.489 209.401 102.104 207.032 96.7189 197.558Z"/><path fill="#FFC107" d="M108.087 90.3777C104.497 88.0091 101.505 85.6404 101.505 82.0875C101.505 78.5346 103.899 77.3503 107.489 74.3895C108.087 73.7973 114.668 67.8758 121.25 67.8758C127.831 67.8758 135.609 72.0209 138.601 73.2052C143.986 74.3895 149.37 75.5738 148.772 79.7189C148.174 85.6404 147.576 86.8248 141.592 89.7855C137.404 90.9698 129.626 97.4835 124.241 97.4835C121.848 97.4835 118.258 97.4835 115.865 96.8914C114.07 96.2992 111.078 93.3385 108.087 90.3777V90.3777Z"/><path fill="#634703" d="M106.89 85.6405C108.087 86.8248 109.882 88.0091 111.677 88.6012C112.873 89.1934 114.668 89.7856 114.668 89.7856C117.062 89.7856 118.857 89.7856 120.053 89.7856C123.045 89.7856 127.233 88.6013 131.421 86.2326C135.609 84.4562 136.208 83.2718 139.199 82.0875C142.191 80.3111 145.182 78.5346 143.986 77.9425C142.789 77.3503 141.592 77.9425 137.404 80.3111C133.814 82.6797 130.823 83.864 127.233 85.6405C125.438 86.2326 123.045 87.4169 121.25 87.4169C119.455 87.4169 117.66 87.4169 115.865 87.4169C114.07 87.4169 112.873 86.8248 111.078 86.2326C109.882 85.6405 109.283 85.0483 108.685 85.0483C107.489 84.4562 105.095 82.0875 103.899 81.4954C103.899 81.4954 102.702 81.4954 103.3 82.0875C105.095 83.864 105.694 84.4562 106.89 85.6405Z"/><path fill="#634703" d="M124.84 72.613C125.438 73.7973 126.635 73.7973 127.233 74.3895C127.831 74.9816 128.429 74.9816 128.429 74.9816C129.028 74.3895 128.429 73.2052 127.831 73.2052C127.831 72.0209 124.84 72.0209 124.84 72.613V72.613Z"/><path fill="#634703" d="M115.267 73.7973C115.267 74.3895 116.463 74.9816 116.463 74.3895C117.062 73.7973 117.66 73.2052 118.258 73.2052C119.455 72.613 118.856 72.0209 117.062 72.0209C115.865 72.613 115.865 73.2052 115.267 73.7973V73.7973Z"/><path fill="#455A64" d="M173.303 178.609C173.303 179.201 173.303 179.793 173.303 180.385C174.5 182.754 177.491 183.346 179.884 183.346C183.474 183.346 187.064 180.977 188.859 178.609C188.859 178.017 189.457 177.424 190.056 176.832C191.252 175.056 191.851 173.872 192.449 173.279C192.449 173.279 191.851 172.687 191.851 172.095C191.252 170.911 189.457 169.726 187.064 169.134C185.269 168.542 182.278 167.95 181.081 167.95C175.696 167.358 172.705 169.134 170.91 170.911C170.91 170.911 171.508 170.911 171.508 171.503C172.705 172.687 173.303 173.872 173.303 175.648C173.901 176.832 173.303 177.424 173.303 178.609V178.609Z"/></svg>
        </g></svg><text x="336.0" y="454" text-anchor="middle" font-family="'Segoe UI', Arial, sans-serif" font-size="20" font-weight="600" fill="#cbd5e1">Linux</text><svg x="528.0" y="360" width="64" height="64" viewBox="0 0 256 256"><g transform="translate(0, 0)">
          <svg xmlns="http://www.w3.org/2000/svg" width="256" height="256" fill="none" viewBox="0 0 256 256"><rect width="256" height="256" fill="#009639" rx="60"/><path fill="#fff" d="M195.338 213C190.746 213 186.224 211.213 182.847 207.829L78.3239 103.307V195.34C78.3239 205.095 70.4184 213 60.662 213C50.9126 213 43 205.095 43 195.34V60.6678C43 53.5189 47.3095 47.0834 53.908 44.3496C60.4995 41.6087 68.1012 43.1204 73.1525 48.1784L177.676 152.7V60.6678C177.676 50.9122 185.582 43.0074 195.338 43.0074C205.095 43.0074 213 50.9122 213 60.6678V195.34C213 202.481 208.69 208.924 202.092 211.658C199.909 212.562 197.62 213 195.338 213Z"/></svg>
        </g></svg><text x="560.0" y="454" text-anchor="middle" font-family="'Segoe UI', Arial, sans-serif" font-size="20" font-weight="600" fill="#cbd5e1">Nginx</text><svg x="752.0" y="360" width="64" height="64" viewBox="0 0 256 256"><g transform="translate(0, 0)">
          <svg xmlns="http://www.w3.org/2000/svg" width="256" height="256" fill="none" viewBox="0 0 256 256"><rect width="256" height="256" fill="#F03C2E" rx="60"/><g clip-path="url(#git_clip0_7_283)"><path fill="#fff" d="M224.225 119.094L136.906 31.775C135.711 30.5787 134.291 29.6298 132.729 28.9824C131.166 28.3349 129.491 28.0017 127.8 28.0017C126.109 28.0017 124.434 28.3349 122.871 28.9824C121.309 29.6298 119.889 30.5787 118.694 31.775L100.569 49.9L123.569 72.9C128.919 71.025 135.044 72.3062 139.306 76.5687C141.335 78.6014 142.752 81.1638 143.394 83.9632C144.036 86.7626 143.878 89.6862 142.937 92.4L165.106 114.569C170.469 112.719 176.656 113.912 180.937 118.206C182.361 119.63 183.49 121.32 184.26 123.18C185.03 125.04 185.426 127.033 185.426 129.046C185.425 131.059 185.029 133.052 184.258 134.912C183.487 136.771 182.358 138.461 180.934 139.884C179.511 141.308 177.821 142.436 175.961 143.206C174.101 143.977 172.108 144.373 170.095 144.372C168.082 144.372 166.088 143.975 164.229 143.205C162.369 142.434 160.679 141.305 159.256 139.881C154.756 135.381 153.644 128.756 155.919 123.212L135.244 102.537V156.944C136.745 157.686 138.116 158.666 139.306 159.844C140.729 161.267 141.858 162.956 142.629 164.816C143.399 166.675 143.795 168.668 143.795 170.681C143.795 172.694 143.399 174.687 142.629 176.546C141.858 178.406 140.729 180.096 139.306 181.519C137.883 182.942 136.193 184.071 134.334 184.841C132.474 185.611 130.481 186.008 128.469 186.008C126.456 186.008 124.463 185.611 122.604 184.841C120.744 184.071 119.054 182.942 117.631 181.519C116.206 180.096 115.076 178.407 114.305 176.548C113.533 174.688 113.136 172.694 113.136 170.681C113.136 168.668 113.533 166.675 114.305 164.815C115.076 162.955 116.206 161.266 117.631 159.844C119.112 158.369 120.756 157.25 122.65 156.5V101.587C120.825 100.837 119.112 99.7312 117.631 98.2437C115.479 96.0943 114.016 93.3526 113.428 90.3684C112.841 87.3841 113.155 84.2924 114.331 81.4875L91.6437 58.8125L31.7687 118.625C30.5716 119.821 29.6219 121.241 28.9739 122.804C28.3259 124.367 27.9924 126.042 27.9924 127.734C27.9924 129.426 28.3259 131.102 28.9739 132.665C29.6219 134.228 30.5716 135.648 31.7687 136.844L119.094 224.156C120.289 225.352 121.709 226.301 123.271 226.949C124.834 227.596 126.509 227.929 128.2 227.929C129.891 227.929 131.566 227.596 133.129 226.949C134.691 226.301 136.111 225.352 137.306 224.156L224.225 137.375C225.422 136.179 226.372 134.759 227.02 133.196C227.668 131.633 228.001 129.958 228.001 128.266C228.001 126.574 227.668 124.898 227.02 123.335C226.372 121.772 225.422 120.352 224.225 119.156"/></g><defs><clipPath id="git_clip0_7_283"><rect width="200" height="200" fill="#fff" transform="translate(28 28)"/></clipPath></defs></svg>
        </g></svg><text x="784.0" y="454" text-anchor="middle" font-family="'Segoe UI', Arial, sans-serif" font-size="20" font-weight="600" fill="#cbd5e1">Git</text><svg x="976.0" y="360" width="64" height="64" viewBox="0 0 256 256"><g transform="translate(0, 0)">
          <svg xmlns="http://www.w3.org/2000/svg" width="256" height="256" fill="none" viewBox="0 0 256 256"><rect width="256" height="256" fill="#00599C" rx="60"/><path fill="#fff" d="M110.759 210.517C65.1254 210.517 28 173.392 28 127.759C28 82.1254 65.1254 45 110.759 45C140.204 45 167.667 60.8458 182.427 86.3533L146.611 107.079C139.224 94.3111 125.485 86.3793 110.759 86.3793C87.9416 86.3793 69.3793 104.942 69.3793 127.759C69.3793 150.575 87.9416 169.138 110.759 169.138C125.486 169.138 139.225 161.206 146.613 148.436L182.429 169.161C167.669 194.671 140.206 210.517 110.759 210.517Z"/><path fill="#fff" d="M193.517 123.161H184.321V113.965H175.127V123.161H165.931V132.356H175.127V141.552H184.321V132.356H193.517V123.161Z"/><path fill="#fff" d="M228 123.161H218.804V113.965H209.61V123.161H200.414V132.356H209.61V141.552H218.804V132.356H228V123.161Z"/></svg>
        </g></svg><text x="1008.0" y="454" text-anchor="middle" font-family="'Segoe UI', Arial, sans-serif" font-size="20" font-weight="600" fill="#cbd5e1">C++</text></svg>